# xmcd CD database file
#
# Track frame offsets:
#        150
#        14718
#        33270
#        46676
#        57761
#        69123
#        81193
#        93710
#        113643
#        126720
#        142134
#        153422
#        166459
#        183342
#
# Disc length: 2582 seconds
#
# Revision: 0
# Processed by: cddbd v1.5.2PL0 Copyright (c) Steve Scherf et al.
# Submitted via: CUERipper 2.1.5
#
DISCID=be0a140e
DTITLE=Johnny Cash - The Golden Years Walk the Line
DYEAR=1900
DGENRE=
TTITLE0=Folson Prison Blues
TTITLE1=Sunday Morning Coming Down
TTITLE2=Ring Of Fire
TTITLE3=I Walk The Line
TTITLE4=Delia
TTITLE5=The Beast In Me
TTITLE6=Drive Obn
TTITLE7=The Man Who Couldn't Cry
TTITLE8=Number 13
TTITLE9=Tennessee Stud
TTITLE10=Big River
TTITLE11=Ghost Rider In The Sky
TTITLE12=Orange Blossom Special
TTITLE13=Let The Train Blow The Whistle
EXTD=
EXTT0=
EXTT1=
EXTT2=
EXTT3=
EXTT4=
EXTT5=
EXTT6=
EXTT7=
EXTT8=
EXTT9=
EXTT10=
EXTT11=
EXTT12=
EXTT13=
PLAYORDER=
